<?xml version="1.0" encoding="UTF-8"?>
<svg width="200" height="200" viewBox="0 0 200 200" xmlns="http://www.w3.org/2000/svg">
  <path d="M100 180c-44.183 0-80-35.817-80-80 0-44.183 35.817-80 80-80 44.183 0 80 35.817 80 80 0 44.183-35.817 80-80 80z" fill="#f8f9fa"/>
  <path d="M100 40c-33.137 0-60 26.863-60 60s26.863 60 60 60 60-26.863 60-60-26.863-60-60-60zm0 110c-27.614 0-50-22.386-50-50s22.386-50 50-50 50 22.386 50 50-22.386 50-50 50z" fill="#e9ecef"/>
  <path d="M100 70c-16.569 0-30 13.431-30 30s13.431 30 30 30 30-13.431 30-30-13.431-30-30-30zm0 50c-11.046 0-20-8.954-20-20s8.954-20 20-20 20 8.954 20 20-8.954 20-20 20z" fill="#dc3545"/>
  <path d="M100 90c-5.523 0-10 4.477-10 10s4.477 10 10 10 10-4.477 10-10-4.477-10-10-10z" fill="#dc3545"/>
</svg> 